<?xml version="1.0" encoding="utf-8"?>
<!-- Generator: Adobe Illustrator 26.4.1, SVG Export Plug-In . SVG Version: 6.00 Build 0)  -->
<svg version="1.1" id="Layer_1" xmlns="http://www.w3.org/2000/svg" xmlns:xlink="http://www.w3.org/1999/xlink" x="0px" y="0px"
	 viewBox="0 0 100 100" style="enable-background:new 0 0 100 100;" xml:space="preserve">
<style type="text/css">
	.st0{fill:#F6D4BC;}
	.st1{fill:#BF836F;}
	.st2{opacity:0.6;}
	.st3{fill:#FFFFFF;}
	.st4{fill:#9CBC26;}
	.st5{fill:#6A871B;}
</style>
<g>
	<g>
		<g>
			<path class="st0" d="M48.6,94.3c-11.7,0-23.5-0.5-35.2-1.5c-4.6-0.4-8.4-4.3-8.8-8.8c-2-23.3-2-47,0-70.3C5,9,8.9,5.1,13.4,4.7
				c11.7-1,23.5-1.5,35.2-1.5s23.5,0.5,35.2,1.5c4.6,0.4,8.4,4.3,8.8,8.8c2,23.3,2,47,0,70.3c-0.4,4.6-4.3,8.4-8.8,8.8
				C72.1,93.8,60.3,94.3,48.6,94.3z"/>
			<path class="st1" d="M48.6,5.2c11.6,0,23.4,0.5,35,1.5c3.6,0.3,6.7,3.5,7,7c2,23.2,2,46.8,0,70c-0.3,3.6-3.5,6.7-7,7
				c-11.6,1-23.4,1.5-35,1.5c-11.6,0-23.4-0.5-35-1.5c-3.6-0.3-6.7-3.5-7-7c-2-23.2-2-46.8,0-70c0.3-3.6,3.5-6.7,7-7
				C25.2,5.7,37,5.2,48.6,5.2 M48.6,1.2C36.9,1.2,25,1.7,13.3,2.7C7.8,3.2,3.1,7.9,2.6,13.4c-2,23.5-2,47.2,0,70.7
				c0.5,5.5,5.2,10.2,10.7,10.7c11.7,1,23.6,1.5,35.3,1.5c11.7,0,23.6-0.5,35.3-1.5c5.5-0.5,10.2-5.2,10.7-10.7
				c2-23.5,2-47.2,0-70.7C94.1,7.9,89.4,3.2,83.9,2.7C72.2,1.7,60.3,1.2,48.6,1.2L48.6,1.2z"/>
		</g>
	</g>
	<g class="st2">
		<path class="st3" d="M77.1,12.2c0.5-0.3,0.8-0.6,1.1-0.9c-9.9-0.7-19.8-1.1-29.6-1.1c-11.5,0-23.1,0.5-34.6,1.5
			c-1.2,0.1-2.4,1.3-2.5,2.5c-1.9,21.5-1.9,43.3-0.3,64.9c3.9-17.8,3.2-39.2,14.9-51.8C39.1,13.2,56.1,16.2,77.1,12.2z"/>
	</g>
</g>
<g>
	<path class="st4" d="M83.4,59.9C83.3,51.5,74,45,65.3,45c-2.7-0.2-6.5,1-8.2-1.8c3.2-2,12.2,0.9,11.7-4.4c-2.4-6.5-8.9-8.3-15.4-7
		c-3.9,0-6.2,2.9-8.6,4.9c-1.6-10.3-0.3-14.2,1.9-16.7c0.3-0.5-1.2-1.2-2.1-1.4c-4.9,4.9-1.6,12.5-1.2,18.6
		c-8.2-4.6-25,5.8-18.4,14.8C28.6,54.3,32,48.7,36,49c-5.7,8.9-20.5,10.5-14.2,27.2c2.7,11.2,20.2-4.7,18-13.2c-0.5-2.2,2.3-5.2,4-3
		c4.7,8-7.4,20,0.3,28.4l0,0c1.6,1.4,3.3,2.9,4.8,4.4l0,0c5.7,3.5,12.1,11.2,15.8,1.4c3.2-6.4,8.1-12.5,4-20.4
		C66.8,67,53.2,62.6,56.8,55.5c2.1-1.5,3.3,0.6,4.3,2.2C63.5,65.3,85.6,71.3,83.4,59.9z"/>
	<path class="st5" d="M83.4,59.9C83.3,51.5,74,45,65.3,45c-2.7-0.2-6.5,1-8.2-1.8c3.2-2,12.2,0.9,11.7-4.4c-2.4-6.5-8.9-8.3-15.4-7
		c-3.6,0-5.9,2.6-8.2,4.6c5.5,20.8,5.6,43.2,16.8,61.8c1-0.7,1.9-2,2.7-4.1c3.2-6.4,8.1-12.5,4-20.4C66.8,67,53.2,62.6,56.8,55.5
		c2.1-1.5,3.3,0.6,4.3,2.2C63.5,65.3,85.6,71.3,83.4,59.9z"/>
</g>
</svg>
