<?xml version="1.0" encoding="utf-8"?>
<!-- Generator: Adobe Illustrator 26.4.1, SVG Export Plug-In . SVG Version: 6.00 Build 0)  -->
<svg version="1.1" id="Layer_1" xmlns="http://www.w3.org/2000/svg" xmlns:xlink="http://www.w3.org/1999/xlink" x="0px" y="0px"
	 viewBox="0 0 100 100" style="enable-background:new 0 0 100 100;" xml:space="preserve">
<style type="text/css">
	.st0{fill:#F6D4BC;}
	.st1{fill:#BF836F;}
	.st2{opacity:0.6;}
	.st3{fill:#FFFFFF;}
	.st4{fill:#9CBC26;}
	.st5{fill:#6A871B;}
</style>
<g>
	<g>
		<g>
			<path class="st0" d="M48.6,94.3c-11.7,0-23.5-0.5-35.2-1.5c-4.6-0.4-8.4-4.3-8.8-8.8c-2-23.3-2-47,0-70.3C5,9,8.9,5.1,13.4,4.7
				c11.7-1,23.5-1.5,35.2-1.5s23.5,0.5,35.2,1.5c4.6,0.4,8.4,4.3,8.8,8.8c2,23.3,2,47,0,70.3c-0.4,4.6-4.3,8.4-8.8,8.8
				C72.1,93.8,60.3,94.3,48.6,94.3z"/>
			<path class="st1" d="M48.6,5.2c11.6,0,23.4,0.5,35,1.5c3.6,0.3,6.7,3.5,7,7c2,23.2,2,46.8,0,70c-0.3,3.6-3.5,6.7-7,7
				c-11.6,1-23.4,1.5-35,1.5c-11.6,0-23.4-0.5-35-1.5c-3.6-0.3-6.7-3.5-7-7c-2-23.2-2-46.8,0-70c0.3-3.6,3.5-6.7,7-7
				C25.2,5.7,37,5.2,48.6,5.2 M48.6,1.2C36.9,1.2,25,1.7,13.3,2.7C7.8,3.2,3.1,7.9,2.6,13.4c-2,23.5-2,47.2,0,70.7
				c0.5,5.5,5.2,10.2,10.7,10.7c11.7,1,23.6,1.5,35.3,1.5c11.7,0,23.6-0.5,35.3-1.5c5.5-0.5,10.2-5.2,10.7-10.7
				c2-23.5,2-47.2,0-70.7C94.1,7.9,89.4,3.2,83.9,2.7C72.2,1.7,60.3,1.2,48.6,1.2L48.6,1.2z"/>
		</g>
	</g>
	<g class="st2">
		<path class="st3" d="M77.1,12.2c0.5-0.3,0.8-0.6,1.1-0.9c-9.9-0.7-19.8-1.1-29.6-1.1c-11.5,0-23.1,0.5-34.6,1.5
			c-1.2,0.1-2.4,1.3-2.5,2.5c-1.9,21.5-1.9,43.3-0.3,64.9c3.9-17.8,3.2-39.2,14.9-51.8C39.1,13.2,56.1,16.2,77.1,12.2z"/>
	</g>
</g>
<g>
	<path class="st4" d="M87.7,57.9c-0.1-8.9-10-15.6-19.1-15.7c-2.8-0.2-6.9,1-8.6-1.9c3.4-2.1,12.8,1,12.3-4.6
		c-2.6-6.9-9.3-8.8-16.2-7.4c-4.1,0-6.5,3.1-9,5.2c-1.7-10.8-0.3-14.9,2-17.5c0.3-0.5-1.2-1.3-2.2-1.5c-5.2,5.1-1.6,13.1-1.3,19.6
		c-8.7-4.9-26.3,6.1-19.4,15.6c3.9,2.3,7.5-3.6,11.7-3.3c-6,9.3-21.6,11-14.9,28.6c2.9,11.8,21.2-5,19-13.9
		c-0.5-2.3,2.4-5.5,4.2-3.2c5,8.4-7.7,21,0.3,29.8l0,0c1.7,1.5,3.5,3,5.1,4.7l0,0c6,3.7,12.7,11.8,16.6,1.5
		c3.3-6.7,8.5-13.2,4.2-21.4c-2-7.1-16.3-11.7-12.5-19.1c2.2-1.6,3.5,0.7,4.5,2.3C66.8,63.6,90,69.8,87.7,57.9z"/>
	<path class="st5" d="M87.7,57.9c-0.1-8.9-10-15.6-19.1-15.7c-2.8-0.2-6.9,1-8.6-1.9c3.4-2.1,12.8,1,12.3-4.6
		c-2.6-6.9-9.3-8.8-16.2-7.4c-3.8,0-6.2,2.8-8.6,4.8c5.8,21.9,5.9,45.4,17.6,65c1.1-0.7,2-2.1,2.8-4.3c3.3-6.7,8.5-13.2,4.2-21.4
		c-2-7.1-16.3-11.7-12.5-19.1c2.2-1.6,3.5,0.7,4.5,2.3C66.8,63.6,90,69.8,87.7,57.9z"/>
</g>
</svg>
